<svg xmlns="http://www.w3.org/2000/svg" width="36.186" height="35.655" viewBox="0 0 36.186 35.655">
  <g id="Group_83" data-name="Group 83" transform="translate(-16.427 -23.345)">
    <g id="Ellipse_19" data-name="Ellipse 19" transform="translate(17 24)" fill="#fff" stroke="#a9a9a9" stroke-width="1">
      <circle cx="17.5" cy="17.5" r="17.5" stroke="none"/>
      <circle cx="17.5" cy="17.5" r="17" fill="none"/>
    </g>
    <path id="Subtraction_1" data-name="Subtraction 1" d="M28.807,29.457h0c-1.166-1.606-3.56-2.623-5.363-3.194a22.869,22.869,0,0,0-6.376-1.072,22.869,22.869,0,0,0-6.376,1.072c-1.8.57-4.2,1.588-5.364,3.193A17.067,17.067,0,1,1,29.136,5a17.054,17.054,0,0,1-.329,24.458ZM17.068,9.677a6.206,6.206,0,1,0,6.205,6.205A6.213,6.213,0,0,0,17.068,9.677Z" transform="matrix(0.999, 0.035, -0.035, 0.999, 17.981, 23.863)" fill="#fff" stroke="#a9a9a9" stroke-width="1"/>
  </g>
</svg>
