<svg xmlns="http://www.w3.org/2000/svg" width="19" height="19" viewBox="0 0 19 19">
  <path id="Icon_material-my-location" data-name="Icon material-my-location" d="M11,7.545A3.455,3.455,0,1,0,14.455,11,3.454,3.454,0,0,0,11,7.545Zm7.721,2.591a7.768,7.768,0,0,0-6.857-6.857V1.5H10.136V3.279a7.768,7.768,0,0,0-6.857,6.857H1.5v1.727H3.279a7.768,7.768,0,0,0,6.857,6.857V20.5h1.727V18.721a7.768,7.768,0,0,0,6.857-6.857H20.5V10.136ZM11,17.045A6.045,6.045,0,1,1,17.045,11,6.041,6.041,0,0,1,11,17.045Z" transform="translate(-1.5 -1.5)" fill="#535252"/>
</svg>
